<?xml version="1.0" encoding="utf-8"?>
<!-- Generator: Adobe Illustrator 15.0.0, SVG Export Plug-In . SVG Version: 6.00 Build 0)  -->
<!DOCTYPE svg PUBLIC "-//W3C//DTD SVG 1.1//EN" "http://www.w3.org/Graphics/SVG/1.1/DTD/svg11.dtd">
<svg version="1.1" id="Calque_1" xmlns="http://www.w3.org/2000/svg" xmlns:xlink="http://www.w3.org/1999/xlink" x="0px" y="0px"
	 width="512px" height="512px" viewBox="0 0 512 512" enable-background="new 0 0 512 512" xml:space="preserve">
<path id="crosshair-9-icon" fill="#28323C" d="M256,51c-92.61,0-167.682,75.073-167.682,167.682
	C88.318,312.724,169.85,374.754,256,461c86.149-86.246,167.682-148.276,167.682-242.318C423.682,126.073,348.609,51,256,51z
	 M275.904,334.954v-56.563h-39.806v56.563c-51.946-8.45-92.966-49.429-101.484-101.352h56.695v-39.806h-56.747
	c8.401-52.075,49.483-93.2,101.536-101.669v56.879h39.806V92.127c52.053,8.469,93.135,49.594,101.535,101.669h-56.746v39.806h56.695
	C368.87,285.525,327.849,326.504,275.904,334.954z"/>
</svg>
