<?xml version="1.0" encoding="utf-8"?>
<!-- Generator: Adobe Illustrator 15.0.0, SVG Export Plug-In . SVG Version: 6.00 Build 0)  -->
<!DOCTYPE svg PUBLIC "-//W3C//DTD SVG 1.1//EN" "http://www.w3.org/Graphics/SVG/1.1/DTD/svg11.dtd">
<svg version="1.1" id="Calque_1" xmlns="http://www.w3.org/2000/svg" xmlns:xlink="http://www.w3.org/1999/xlink" x="0px" y="0px"
	 width="512px" height="512px" viewBox="0 0 512 512" enable-background="new 0 0 512 512" xml:space="preserve">
<path id="magnifier-icon" fill="#28323C" d="M459.483,407.703L350.937,299.159c15.872-25.016,25.077-54.656,25.077-86.411
	C376.016,123.56,303.455,51,214.266,51c-89.188,0-161.748,72.56-161.748,161.748c0,89.188,72.56,161.748,161.748,161.748
	c30.179,0,58.447-8.315,82.652-22.765L406.186,461L459.483,407.703z M112.816,212.748c0-55.94,45.51-101.451,101.45-101.451
	c55.939,0,101.452,45.511,101.452,101.451c0,55.94-45.512,101.45-101.452,101.45S112.816,268.688,112.816,212.748z"/>
</svg>
